#N canvas 477 23 871 531 10;
#X floatatom 149 218 5 0 0 2 - - -, f 5;
#X floatatom 187 237 5 0 0 2 - - -, f 5;
#X msg 115 163 bang;
#X obj 102 432 route 0 1 2 3;
#X floatatom 102 465 10 0 0 0 - - -, f 10;
#X floatatom 181 465 10 0 0 0 - - -, f 10;
#X floatatom 260 465 10 0 0 0 - - -, f 10;
#X floatatom 339 465 10 0 0 0 - - -, f 10;
#X text 26 26 VBAP and define_loudspeakers;
#X floatatom 119 396 0 0 0 3 actual_azimuth - -;
#X floatatom 136 361 0 0 0 3 actual_elevation - -;
#X floatatom 153 338 7 0 0 1 actual_spread - -, f 7;
#X msg 25 115 define_loudspeakers 2 -45 45 -135 135;
#X msg 51 135 define_loudspeakers 3 -45 45 -135 135 32 5 94 34 34 11
;
#X obj 152 202 hsl 100 13 0 360 0 0 empty empty azimuth 10 7 0 10 -262144
-1 -1 0 1;
#X obj 190 220 hsl 100 13 0 360 0 0 empty empty elevation 10 7 0 10
-262144 -1 -1 0 1;
#X floatatom 227 257 5 0 0 2 - - -, f 5;
#X obj 230 240 hsl 100 13 0 100 0 0 empty empty spread 10 7 0 10 -262144
-1 -1 0 1;
#X text 149 163 to output updated values;
#X obj 102 287 vbap 90 0 30;
#X obj 83 185 metro 100;
#X obj 83 163 tgl 15 0 empty empty empty 17 7 0 10 -262144 -1 -1 0
1;
#N canvas 283 23 519 588 simple 0;
#X floatatom 133 183 5 0 0 2 - - -, f 5;
#X floatatom 112 445 10 0 0 0 - - -, f 10;
#X floatatom 181 445 10 0 0 0 - - -, f 10;
#X floatatom 127 371 0 0 0 3 actual_azimuth - -;
#X floatatom 143 335 0 0 0 3 actual_elevation - -;
#X floatatom 159 306 7 0 0 1 actual_spread - -, f 7;
#X obj 136 167 hsl 100 13 -180 180 0 1 empty empty azimuth 10 7 0 10
-262144 -1 -1 9900 1;
#X floatatom 175 231 5 0 0 2 - - -, f 5;
#X obj 178 214 hsl 100 13 0 100 0 1 empty empty spread 10 7 0 10 -262144
-1 -1 700 1;
#X text 130 113 to output updated values;
#X obj 112 134 metro 100;
#X obj 112 112 tgl 15 0 empty empty empty 17 7 0 10 -262144 -1 -1 0
1;
#X text 171 185 (ignore elevation in 2D \, that's for 3D);
#X obj 97 524 *~;
#X obj 126 525 *~;
#X msg 454 145 dsp 1;
#X obj 454 169 send pd;
#X floatatom 250 445 10 0 0 0 - - -, f 10;
#X floatatom 319 445 10 0 0 0 - - -, f 10;
#X obj 157 524 *~;
#X obj 186 525 *~;
#X msg 38 68 define_loudspeakers 2 -135 -45 0 45 135;
#X text 32 17 Define 2D speaker arrangement with speakers at -135 \,
-45 \, 0 \, 45 and 135 degree positions (0 degrees is the center front).
This is a classic 5.1 setup.;
#X floatatom 389 445 10 0 0 0 - - -, f 10;
#X obj 97 556 dac~ 1 2 3 4 5;
#X obj 216 525 *~;
#X obj 112 267 vbap 0 0 30;
#X obj 112 411 route 0 1 2 3 4;
#X obj 22 442 *~ 0.2;
#X obj 22 420 noise~;
#X obj 308 305 route current;
#X floatatom 308 332 5 0 0 1 current_set - -, f 5;
#X connect 0 0 26 1;
#X connect 1 0 13 1;
#X connect 2 0 14 1;
#X connect 6 0 0 0;
#X connect 7 0 26 3;
#X connect 8 0 7 0;
#X connect 10 0 26 0;
#X connect 11 0 10 0;
#X connect 13 0 24 0;
#X connect 14 0 24 1;
#X connect 15 0 16 0;
#X connect 17 0 19 1;
#X connect 18 0 20 1;
#X connect 19 0 24 2;
#X connect 20 0 24 3;
#X connect 21 0 26 0;
#X connect 23 0 25 1;
#X connect 25 0 24 4;
#X connect 26 0 27 0;
#X connect 26 1 3 0;
#X connect 26 2 4 0;
#X connect 26 3 5 0;
#X connect 26 4 30 0;
#X connect 27 0 1 0;
#X connect 27 1 2 0;
#X connect 27 2 17 0;
#X connect 27 3 18 0;
#X connect 27 4 23 0;
#X connect 28 0 13 0;
#X connect 28 0 14 0;
#X connect 28 0 19 0;
#X connect 28 0 20 0;
#X connect 28 0 25 0;
#X connect 29 0 28 0;
#X connect 30 0 31 0;
#X restore 572 457 pd simple 5.1 example;
#X text 337 238 (0-100);
#X text 297 217 (0-360);
#X text 257 199 (0-360);
#X text 21 490 Vector Base Amplitude Panning;
#X text 241 489 (C) 1998-2003 \, 2006 Ville Pulkki;
#X obj 299 340 route current;
#X obj 374 363 print;
#X floatatom 299 382 5 0 0 1 current_set - -, f 5;
#X text 477 488 You can also use [vbap] to control: cyclone/matrix~
;
#X text 476 152 In two dimensions \, only specify the azimuth. For
example: "define_loudspeakers 2 -45 45 0 180";
#X text 24 62 THe loudspeaker position definition can also be sent
directly to a vbap object. This changes the setup information only
in a single vbap object.;
#X text 476 406 For an example of how to use vbap with iemmatrix/matrix~
see: examples/vbap-demo.pd;
#X text 476 320 The spread-parameter can be used to prevent a situation
where sound is coming from one speaker only \, which would make speaker
positions "visible". The range is 0 to 100;
#X text 476 366 As location changes \, the current speaker set id is
output from the right-most outlet: "current setid";
#X text 476 191 When loaded \, the defined speaker set ids are output
from the right-most outlet as lists: "set setid speakerid speakerid
speakerid...".;
#X text 298 314 loudspeaker set info;
#X text 476 59 1) Use the define_loudspeakers object or message to
list the speaker positions. The example here defines loudspeakers in
three dimensions (the first parameter). For each speaker \, define
its azimuth and elevation. Here we have speakers front left and right
with no elevation (-45 0 45 0) and front and back with 45 degrees of
elevation (0 45 180 45). Send the data to vbap.;
#X text 476 249 2) For vbap \, give azimuth and elevation for the desired
location. Bang the first inlet and vbap will output gain-factors for
each speaker and the actual location produced. This can be different
from the desired one depending where your speakers are.;
#X connect 0 0 19 1;
#X connect 1 0 19 2;
#X connect 2 0 19 0;
#X connect 3 0 4 0;
#X connect 3 1 5 0;
#X connect 3 2 6 0;
#X connect 3 3 7 0;
#X connect 12 0 19 0;
#X connect 13 0 19 0;
#X connect 14 0 0 0;
#X connect 15 0 1 0;
#X connect 16 0 19 3;
#X connect 17 0 16 0;
#X connect 19 0 3 0;
#X connect 19 1 9 0;
#X connect 19 2 10 0;
#X connect 19 3 11 0;
#X connect 19 4 28 0;
#X connect 20 0 19 0;
#X connect 21 0 20 0;
#X connect 28 0 30 0;
#X connect 28 1 29 0;
